{
	"patcher" : 	{
		"fileversion" : 1,
		"appversion" : 		{
			"major" : 7,
			"minor" : 2,
			"revision" : 5,
			"architecture" : "x86",
			"modernui" : 1
		}
,
		"rect" : [ 795.0, 79.0, 727.0, 673.0 ],
		"bglocked" : 0,
		"openinpresentation" : 0,
		"default_fontsize" : 12.0,
		"default_fontface" : 0,
		"default_fontname" : "Arial",
		"gridonopen" : 1,
		"gridsize" : [ 15.0, 15.0 ],
		"gridsnaponopen" : 1,
		"objectsnaponopen" : 1,
		"statusbarvisible" : 2,
		"toolbarvisible" : 1,
		"lefttoolbarpinned" : 0,
		"toptoolbarpinned" : 0,
		"righttoolbarpinned" : 0,
		"bottomtoolbarpinned" : 0,
		"toolbars_unpinned_last_save" : 0,
		"tallnewobj" : 0,
		"boxanimatetime" : 200,
		"enablehscroll" : 1,
		"enablevscroll" : 1,
		"devicewidth" : 0.0,
		"description" : "",
		"digest" : "",
		"tags" : "",
		"style" : "",
		"subpatcher_template" : "",
		"boxes" : [ 			{
				"box" : 				{
					"id" : "obj-3",
					"linecount" : 2,
					"maxclass" : "comment",
					"numinlets" : 1,
					"numoutlets" : 0,
					"patching_rect" : [ 238.0, 407.0, 150.0, 33.0 ],
					"style" : "",
					"text" : "Use Phone as sampler and controller as effects"
				}

			}
, 			{
				"box" : 				{
					"id" : "obj-7",
					"maxclass" : "newobj",
					"numinlets" : 0,
					"numoutlets" : 19,
					"outlettype" : [ "", "", "", "", "", "", "", "", "", "", "", "", "", "", "", "", "", "", "" ],
					"patching_rect" : [ 30.0, 43.0, 684.0, 22.0 ],
					"style" : "",
					"text" : "controlSetup"
				}

			}
, 			{
				"box" : 				{
					"id" : "obj-6",
					"maxclass" : "newobj",
					"numinlets" : 2,
					"numoutlets" : 0,
					"patching_rect" : [ 30.0, 250.0, 203.0, 22.0 ],
					"style" : "",
					"text" : "soundOut"
				}

			}
, 			{
				"box" : 				{
					"id" : "obj-4",
					"maxclass" : "newobj",
					"numinlets" : 9,
					"numoutlets" : 1,
					"outlettype" : [ "" ],
					"patching_rect" : [ 30.0, 153.0, 294.5, 22.0 ],
					"style" : "",
					"text" : "effects"
				}

			}
, 			{
				"box" : 				{
					"id" : "obj-1",
					"maxclass" : "newobj",
					"numinlets" : 4,
					"numoutlets" : 1,
					"outlettype" : [ "" ],
					"patching_rect" : [ 30.0, 108.0, 94.13636, 22.0 ],
					"style" : "",
					"text" : "sampler"
				}

			}
 ],
		"lines" : [ 			{
				"patchline" : 				{
					"destination" : [ "obj-4", 0 ],
					"disabled" : 0,
					"hidden" : 0,
					"midpoints" : [ 39.5, 132.0, 39.5, 132.0 ],
					"source" : [ "obj-1", 0 ]
				}

			}
, 			{
				"patchline" : 				{
					"destination" : [ "obj-1", 3 ],
					"disabled" : 0,
					"hidden" : 0,
					"midpoints" : [ 445.888885, 93.0, 114.63636, 93.0 ],
					"source" : [ "obj-7", 11 ]
				}

			}
, 			{
				"patchline" : 				{
					"destination" : [ "obj-1", 2 ],
					"disabled" : 0,
					"hidden" : 0,
					"midpoints" : [ 408.944458, 93.0, 89.590904, 93.0 ],
					"source" : [ "obj-7", 10 ]
				}

			}
, 			{
				"patchline" : 				{
					"destination" : [ "obj-1", 1 ],
					"disabled" : 0,
					"hidden" : 0,
					"midpoints" : [ 372.0, 93.0, 64.545456, 93.0 ],
					"source" : [ "obj-7", 9 ]
				}

			}
, 			{
				"patchline" : 				{
					"destination" : [ "obj-1", 0 ],
					"disabled" : 0,
					"hidden" : 0,
					"midpoints" : [ 298.111115, 93.0, 39.5, 93.0 ],
					"source" : [ "obj-7", 7 ]
				}

			}
, 			{
				"patchline" : 				{
					"destination" : [ "obj-6", 1 ],
					"disabled" : 0,
					"hidden" : 0,
					"midpoints" : [ 704.5, 237.0, 223.5, 237.0 ],
					"source" : [ "obj-7", 18 ]
				}

			}
 ],
		"dependency_cache" : [ 			{
				"name" : "sampler.maxpat",
				"bootpath" : "~/max7/XboxControl/patchers",
				"type" : "JSON",
				"implicit" : 1
			}
, 			{
				"name" : "openTransport.maxpat",
				"bootpath" : "C74:/help/max",
				"type" : "JSON",
				"implicit" : 1
			}
, 			{
				"name" : "effects.maxpat",
				"bootpath" : "~/max7/XboxControl/patchers",
				"type" : "JSON",
				"implicit" : 1
			}
, 			{
				"name" : "soundOut.maxpat",
				"bootpath" : "~/max7/XboxControl/patchers",
				"type" : "JSON",
				"implicit" : 1
			}
, 			{
				"name" : "ControlSetup.maxpat",
				"bootpath" : "~/max7/XboxControl/patchers",
				"type" : "JSON",
				"implicit" : 1
			}
 ],
		"autosave" : 0
	}

}
